<svg width="22" height="17" viewBox="0 0 22 17" fill="none" xmlns="http://www.w3.org/2000/svg">
<path d="M18.17 1.40921C16.8315 0.756946 15.3962 0.27639 13.8955 0.00115457C13.8682 -0.00415737 13.8409 0.00911747 13.8268 0.0356678C13.6422 0.384356 13.4377 0.839249 13.2945 1.19679C11.6804 0.940147 10.0746 0.940147 8.49361 1.19679C8.35039 0.831301 8.1385 0.384356 7.95308 0.0356678C7.939 0.0100033 7.9117 -0.00327153 7.88437 0.00115457C6.3845 0.27551 4.94919 0.756067 3.6099 1.40921C3.5983 1.41452 3.58836 1.42337 3.58177 1.43487C0.859296 5.75461 0.113497 9.96817 0.479361 14.1295C0.481016 14.1498 0.491777 14.1693 0.506676 14.1817C2.30289 15.5827 4.04282 16.4332 5.75045 16.9969C5.77778 17.0058 5.80673 16.9951 5.82412 16.9712C6.22806 16.3854 6.58814 15.7676 6.89687 15.118C6.91509 15.08 6.8977 15.0348 6.86046 15.0198C6.28932 14.7897 5.74548 14.5091 5.22234 14.1906C5.18096 14.1649 5.17765 14.102 5.21572 14.0719C5.3258 13.9843 5.43592 13.8932 5.54104 13.8011C5.56006 13.7843 5.58656 13.7808 5.60892 13.7914C9.0457 15.4579 12.7664 15.4579 16.1627 13.7914C16.185 13.7799 16.2115 13.7834 16.2314 13.8002C16.3365 13.8923 16.4466 13.9843 16.5575 14.0719C16.5956 14.102 16.5931 14.1649 16.5517 14.1906C16.0286 14.5153 15.4847 14.7897 14.9128 15.0189C14.8755 15.034 14.859 15.08 14.8772 15.118C15.1925 15.7667 15.5526 16.3845 15.9491 16.9704C15.9657 16.9951 15.9955 17.0058 16.0228 16.9969C17.7387 16.4332 19.4786 15.5827 21.2748 14.1817C21.2906 14.1693 21.3005 14.1507 21.3022 14.1304C21.74 9.31942 20.5688 5.14042 18.1973 1.43575C18.1915 1.42337 18.1816 1.41452 18.17 1.40921ZM7.4101 11.5957C6.37539 11.5957 5.52282 10.5868 5.52282 9.34776C5.52282 8.10873 6.35886 7.09984 7.4101 7.09984C8.46959 7.09984 9.31391 8.11759 9.29735 9.34776C9.29735 10.5868 8.46131 11.5957 7.4101 11.5957ZM14.388 11.5957C13.3533 11.5957 12.5007 10.5868 12.5007 9.34776C12.5007 8.10873 13.3367 7.09984 14.388 7.09984C15.4475 7.09984 16.2918 8.11759 16.2753 9.34776C16.2753 10.5868 15.4475 11.5957 14.388 11.5957Z" fill="white"/>
</svg>
