<svg width="23" height="18" viewBox="0 0 23 18" fill="none" xmlns="http://www.w3.org/2000/svg">
<path fill-rule="evenodd" clip-rule="evenodd" d="M1.90496 7.74888C7.81053 5.20867 11.7485 3.534 13.7189 2.72489C19.3447 0.414697 20.5137 0.0133926 21.2756 0.000141289C21.4432 -0.00277319 21.8179 0.0382296 22.0606 0.232668C22.2656 0.396848 22.3219 0.618632 22.3489 0.774293C22.3759 0.929954 22.4095 1.28455 22.3828 1.56163C22.0779 4.7241 20.7588 12.3986 20.0877 15.9406C19.8037 17.4394 19.2446 17.9419 18.7032 17.9911C17.5268 18.098 16.6335 17.2235 15.4941 16.4861C13.7112 15.3323 12.7039 14.614 10.9732 13.488C8.97316 12.1868 10.2697 11.4716 11.4096 10.3027C11.7079 9.99686 16.8912 5.34226 16.9915 4.92001C17.004 4.86721 17.0157 4.67036 16.8972 4.56642C16.7788 4.46247 16.604 4.49802 16.4778 4.52629C16.299 4.56636 13.4507 6.42501 7.93293 10.1022C7.12445 10.6503 6.39216 10.9174 5.73605 10.9034C5.01274 10.888 3.62138 10.4996 2.58705 10.1677C1.3184 9.76056 0.310108 9.5453 0.397908 8.85385C0.443639 8.4937 0.945991 8.12538 1.90496 7.74888Z" fill="white"/>
</svg>
