<svg width="23" height="19" viewBox="0 0 23 19" fill="none" xmlns="http://www.w3.org/2000/svg">
<path d="M7.35127 18.6998C15.6839 18.6998 20.2401 11.795 20.2401 5.81093C20.2401 5.61365 20.2401 5.41637 20.2308 5.22849C21.1138 4.58968 21.8841 3.79117 22.4948 2.87993C21.6869 3.23691 20.8132 3.48116 19.8926 3.59389C20.832 3.03024 21.5459 2.14718 21.8841 1.08563C21.0105 1.60232 20.0429 1.97808 19.0095 2.18476C18.1828 1.3017 17.0085 0.756836 15.7027 0.756836C13.2039 0.756836 11.1747 2.78599 11.1747 5.28485C11.1747 5.64183 11.2123 5.98942 11.2968 6.31822C7.52977 6.13033 4.19482 4.32664 1.95899 1.58353C1.57383 2.25052 1.34837 3.03024 1.34837 3.85693C1.34837 5.42577 2.14688 6.81611 3.36813 7.62401C2.62598 7.60523 1.93081 7.39855 1.32019 7.06036C1.32019 7.07915 1.32019 7.09794 1.32019 7.11672C1.32019 9.31497 2.87963 11.1375 4.95575 11.5602C4.57998 11.6635 4.17603 11.7199 3.76268 11.7199C3.47146 11.7199 3.18964 11.6917 2.90781 11.6353C3.48086 13.439 5.15303 14.7448 7.13521 14.7824C5.58516 15.9943 3.63116 16.7176 1.50807 16.7176C1.1417 16.7176 0.784715 16.6988 0.427734 16.6519C2.40992 17.9483 4.79605 18.6998 7.35127 18.6998Z" fill="white"/>
</svg>
